<svg width="45" height="44" fill="none" xmlns="http://www.w3.org/2000/svg"><g clip-path="url(#clip0_0_172)" fill="#363853"><path d="M43.858 43.752a.859.859 0 01-.892.198L7.27 31.223a4.698 4.698 0 01-4.255.338A4.706 4.706 0 01.472 25.42 46.081 46.081 0 0110.51 10.396 46.079 46.079 0 0125.533.358 4.675 4.675 0 0127.326 0c1.845 0 3.6 1.094 4.35 2.902a4.687 4.687 0 01-.027 3.65l12.418 36.31a.86.86 0 01-.209.89zM12.676 31.325l3.783 1.349a2.186 2.186 0 00-.264-3.235 2.176 2.176 0 00-1.62-.434 2.176 2.176 0 00-1.452.838c-.328.428-.484.95-.447 1.482zM30.087 3.56a2.985 2.985 0 00-3.896-1.614C15.188 6.504 6.618 15.074 2.06 26.077a2.962 2.962 0 000 2.282 2.962 2.962 0 001.614 1.614 2.963 2.963 0 002.282 0A2.962 2.962 0 007.57 28.36a38.432 38.432 0 018.373-12.531 38.434 38.434 0 0112.53-8.373 2.985 2.985 0 001.614-3.896zm7.635 26.06a2.176 2.176 0 00-1.685.855 2.176 2.176 0 00-.434 1.62 2.187 2.187 0 003.47 1.476l-1.35-3.95zm1.922 5.621a3.913 3.913 0 01-5.745-2.922 3.884 3.884 0 01.774-2.89 3.88 3.88 0 012.478-1.479l-1.708-4.994-1.964 1.507a.86.86 0 01-1.047-1.364l2.424-1.86-4.442-12.99a4.682 4.682 0 01-1.283.795c-9.107 3.772-16.2 10.866-19.973 19.973a4.7 4.7 0 01-.482.882l2.301.82a3.88 3.88 0 01.783-1.922 3.883 3.883 0 013.11-1.53c.854 0 1.681.279 2.37.808a3.884 3.884 0 011.497 2.591c.122.93-.095 1.85-.582 2.613l10.683 3.809.405-.978a.86.86 0 111.588.658l-.372.898 11.405 4.066-2.22-6.491z"/><path d="M9.394 20.945zM8.087 23.08a40.676 40.676 0 00-2.237 4.567.86.86 0 01-1.588-.657 42.393 42.393 0 012.332-4.761.86.86 0 111.493.851zm18.918 9.921a3.918 3.918 0 01-4.386-3.365 3.914 3.914 0 013.88-4.42 3.918 3.918 0 013.872 3.4A3.914 3.914 0 0127.005 33zm1.662-4.161a2.195 2.195 0 00-2.458-1.886 2.193 2.193 0 00-1.886 2.457 2.194 2.194 0 002.458 1.886 2.193 2.193 0 001.886-2.457zm-1.885-6.528a3.918 3.918 0 01-4.386-3.365 3.883 3.883 0 01.774-2.891 3.883 3.883 0 013.105-1.53 3.918 3.918 0 013.872 3.4 3.914 3.914 0 01-3.365 4.386zm1.661-4.162a2.195 2.195 0 00-2.458-1.886 2.177 2.177 0 00-1.451.838 2.176 2.176 0 00-.434 1.62 2.195 2.195 0 002.457 1.886 2.193 2.193 0 001.886-2.458zm-7.329 7.722l-2.642.348a.859.859 0 11-.224-1.704l2.641-.348a.86.86 0 01.225 1.704zm-1.34-6.342l-.233 1.772a.86.86 0 11-1.704-.224l.233-1.772a.86.86 0 111.704.224z"/></g><defs><clipPath id="clip0_0_172"><path fill="#fff" transform="matrix(1 0 0 -1 .113 44)" d="M0 0h44v44H0z"/></clipPath></defs></svg>