<svg width="44" height="44" fill="none" xmlns="http://www.w3.org/2000/svg"><g clip-path="url(#clip0_0_199)"><g clip-path="url(#clip1_0_199)" fill="#363853"><path d="M15.132 13.567h2.124a1 1 0 011 1v1.465a.644.644 0 101.29 0v-1.465a2.292 2.292 0 00-2.29-2.29h-2.124a.984.984 0 010-1.965h4.711a2.275 2.275 0 002.272-2.273 2.275 2.275 0 00-2.272-2.272h-3.77a.645.645 0 000 1.29h3.77a.984.984 0 010 1.965h-4.711a2.275 2.275 0 00-2.273 2.272 2.275 2.275 0 002.273 2.273zm-7.743 4.325h2.108c.544 0 .987.443.987.988v1.454a.644.644 0 101.29 0V18.88a2.279 2.279 0 00-2.277-2.277H7.39a.972.972 0 010-1.94h2.465a.645.645 0 100-1.29H7.389a2.262 2.262 0 00-2.26 2.26 2.262 2.262 0 002.26 2.26zm18.263 8.921a.645.645 0 100-1.29.645.645 0 000 1.29zm3.18 1.46a.645.645 0 100-1.289.645.645 0 000 1.29zm1.891 2.235a.645.645 0 100-1.29.645.645 0 000 1.29zm-2.664-5.242a.644.644 0 100-1.29.644.644 0 000 1.29zm-2.149 5.672a.645.645 0 100-1.29.645.645 0 000 1.29z"/><path d="M42.911 22.81h-1.828l.904-1.867A2.507 2.507 0 0044 18.49a2.507 2.507 0 00-2.102-2.47c-1.315-2.37-3.885-4.149-7.001-4.86v-.048a.644.644 0 00-1.264-.176 13.86 13.86 0 00-1.197-.1.644.644 0 00-1.163 0 14.2 14.2 0 00-1.197.1.644.644 0 00-1.264.176v.049c-3.116.71-5.686 2.49-7.001 4.859a2.506 2.506 0 00-2.093 2.685c-2.975.277-5.649 1.52-7.655 3.386h-4.05a.908.908 0 00-.69.318H5.43a2.118 2.118 0 00-1.957-1.337 2.106 2.106 0 00-2.082 2.397 2.107 2.107 0 00-1.066 3.104 2.106 2.106 0 001.778 3.229c.878 0 1.648-.554 1.958-1.337h1.704a.91.91 0 00.586.623l2.02.686a10.897 10.897 0 00-.002 1.223c-.316.076-.61.207-.873.383a2.701 2.701 0 00-1.51-.46 2.721 2.721 0 00-2.717 2.719l.002.068h-.754c-.426 0-.803.24-.985.624a1.08 1.08 0 00.144 1.156l1.934 2.35c.207.252.514.397.84.397h27.26a.644.644 0 100-1.29H4.545l-1.604-1.948h39.544l-1.603 1.949h-6.164a.645.645 0 100 1.289h6.258c.327 0 .633-.145.84-.397l1.934-2.35a1.08 1.08 0 00.144-1.156 1.079 1.079 0 00-.984-.624h-.638a5.411 5.411 0 00.64-3.671.645.645 0 00-.52-.52 5.409 5.409 0 00-5.008 1.731c-.37-.2-.79-.316-1.237-.325v-1.226h.688a1.98 1.98 0 001.977-1.977v-.865h4.1c.6 0 1.088-.488 1.088-1.088V23.9c0-.6-.488-1.088-1.089-1.088zM6.291 33.707H4.56l-.002-.068a1.43 1.43 0 012.053-1.284 2.7 2.7 0 00-.323 1.284c0 .023.002.045.003.068zm32.225-1.784a4.117 4.117 0 013.184-1.195 4.118 4.118 0 01-1.005 2.98h-1.063l.881-.881a.645.645 0 10-.911-.912l-.914.913a2.71 2.71 0 00-.348-.717c.057-.064.115-.127.176-.188zm-13.013-17.98a10.714 10.714 0 013.309-1.452v.663a.644.644 0 101.29 0v-.918c.364-.053.735-.087 1.108-.106v1.024a.645.645 0 001.289 0V12.13c.373.02.743.054 1.109.106v.918a.645.645 0 001.289 0v-.663c1.206.308 2.333.799 3.309 1.452.95.637 1.724 1.406 2.288 2.256a2.526 2.526 0 00-.604.375 2.506 2.506 0 00-1.607-.587c-.595 0-1.163.215-1.607.587a2.506 2.506 0 00-1.607-.587c-.595 0-1.163.215-1.607.587a2.506 2.506 0 00-1.608-.587 2.51 2.51 0 00-1.607.587 2.506 2.506 0 00-1.607-.587 2.51 2.51 0 00-1.607.587 2.506 2.506 0 00-1.607-.587 2.51 2.51 0 00-1.607.587 2.524 2.524 0 00-.605-.375c.565-.85 1.339-1.62 2.29-2.256zm-3.291 3.333c.43 0 .832.233 1.05.607a.645.645 0 001.114 0 1.22 1.22 0 011.05-.607c.43 0 .832.233 1.05.607a.645.645 0 001.115 0 1.219 1.219 0 011.05-.607c.43 0 .832.233 1.049.607a.645.645 0 001.115 0 1.22 1.22 0 011.05-.607c.43 0 .832.233 1.049.607a.645.645 0 001.115 0 1.22 1.22 0 011.05-.607c.43 0 .832.233 1.05.607a.645.645 0 001.114 0 1.22 1.22 0 011.05-.607c.43 0 .832.233 1.05.607a.645.645 0 001.114 0c.218-.374.62-.607 1.05-.607a1.215 1.215 0 010 2.427c-.43 0-.832-.232-1.05-.607a.645.645 0 00-1.114 0 1.22 1.22 0 01-1.05.608c-.43 0-.833-.233-1.05-.608a.645.645 0 00-1.115 0c-.217.375-.62.608-1.05.608-.43 0-.832-.233-1.049-.608a.645.645 0 00-1.115 0c-.217.375-.62.608-1.05.608a1.22 1.22 0 01-1.05-.608.645.645 0 00-1.114 0 1.22 1.22 0 01-1.05.608 1.22 1.22 0 01-1.05-.608.645.645 0 00-1.114 0 1.22 1.22 0 01-.54.493 13.366 13.366 0 00-4.927-.942 1.215 1.215 0 011.202-1.37zM8.392 23.38h2.472a11.78 11.78 0 00-.712.983h-1.76v-.983zm-2.66 3.796H3.558a.644.644 0 00-.643.59.818.818 0 01-.81.747.815.815 0 01-.519-1.443.645.645 0 000-.993.815.815 0 01.519-1.443c.42 0 .776.327.81.746a.644.644 0 00.643.59h2.176v1.206zm.221-2.494H4.061a2.129 2.129 0 00-1.36-1.248.813.813 0 111.583-.327.645.645 0 00.642.591h2.177v.665h-.46a.909.909 0 00-.69.319zm4.48 9.025H7.58a1.43 1.43 0 011.427-1.497 1.43 1.43 0 011.428 1.429l-.002.068zm19.879 0h-2.244l-.002-.068a1.43 1.43 0 012.439-1.01 2.704 2.704 0 00-.196 1.01c0 .023.002.045.003.068zm-.817-2.786a2.721 2.721 0 00-2.719 2.718c0 .023.002.045.003.068H11.722l.002-.068c0-1.273-.88-2.344-2.063-2.638a9.734 9.734 0 01-.016-.795l6.592 2.239a4.113 4.113 0 003.753-.556 4.106 4.106 0 001.732-3.375c0-.484-.083-.96-.247-1.413a.645.645 0 00-1.212.44c.113.311.17.639.17.973a2.83 2.83 0 01-1.195 2.327 2.83 2.83 0 01-2.587.383l-9.629-3.27v-2.302h10.55c.323 0 .641.055.946.162a.644.644 0 10.427-1.217 4.142 4.142 0 00-1.373-.234h-5.845c2.056-2.676 5.438-4.428 9.256-4.428 6.253 0 11.34 4.696 11.34 10.468 0 .206-.006.412-.02.616a2.72 2.72 0 00-1.042.556 2.705 2.705 0 00-1.766-.654zm4.959 2.786h-2.853a1.43 1.43 0 011.427-1.497c.787 0 1.428.64 1.428 1.429 0 .023 0 .046-.002.068zm.404-2.486a2.72 2.72 0 00-.297.175 2.706 2.706 0 00-.964-.413 10.977 10.977 0 00-.01-1.287h1.271v1.525zm2.665 2.418c0 .023-.002.045-.003.068h-1.777l.002-.068a2.7 2.7 0 00-.313-1.266 1.43 1.43 0 012.09 1.265zm0-5.92c0 .38-.309.688-.688.688h-3.407a10.96 10.96 0 00-.404-1.553h4.499v.865zm5.188-2.154H32.493a11.526 11.526 0 00-.853-1.464h2.735a.644.644 0 100-1.29h-3.756a12.413 12.413 0 00-2.077-1.82 2.46 2.46 0 001.705-.586 2.507 2.507 0 001.607.588c.595 0 1.163-.215 1.608-.588a2.506 2.506 0 001.607.588c.594 0 1.162-.215 1.607-.588a2.506 2.506 0 001.607.588c.594 0 1.162-.215 1.607-.588.215.18.459.323.72.423l-.96 1.984h-2.267a.644.644 0 100 1.289h5.328v1.464z"/></g></g><defs><clipPath id="clip0_0_199"><path fill="#fff" d="M0 0h44v44H0z"/></clipPath><clipPath id="clip1_0_199"><path fill="#fff" d="M0 0h44v44H0z"/></clipPath></defs></svg>