<svg width="24" height="20" fill="none" xmlns="http://www.w3.org/2000/svg"><path d="M18.783 9.565c-1.276.116-2.32.609-3.13 1.479-.812.869-1.218 1.97-1.218 3.304 0 1.45.435 2.637 1.304 3.565.87.87 1.971 1.304 3.305 1.304 1.507 0 2.724-.55 3.652-1.652.87-1.101 1.304-2.811 1.304-5.13C24 7.97 22.522 4.115 19.565.87c-.58-.58-1.246-.87-2-.87-.638 0-1.188.232-1.652.696-.464.405-.696.898-.696 1.478 0 .638.232 1.188.696 1.652 1.507 1.565 2.464 3.478 2.87 5.74zm-14.435 0c-1.276.116-2.319.609-3.13 1.479C.405 11.912 0 13.014 0 14.348c0 1.45.435 2.637 1.304 3.565.87.87 1.971 1.304 3.305 1.304 1.507 0 2.724-.55 3.652-1.652.87-1.101 1.304-2.811 1.304-5.13C9.565 7.97 8.087 4.115 5.13.87 4.55.29 3.884 0 3.13 0c-.637 0-1.188.232-1.652.696-.464.405-.695.898-.695 1.478 0 .638.231 1.188.695 1.652 1.508 1.565 2.464 3.478 2.87 5.74z" fill="#000"/></svg>