<svg width="20" height="22" fill="none" xmlns="http://www.w3.org/2000/svg"><path d="M10.575 2.54v-.959a.611.611 0 00-1.222 0v.965C4.55 2.879.744 6.89.744 11.776c0 5.102 4.153 9.254 9.256 9.254 5.103 0 9.256-4.152 9.256-9.255 0-4.91-3.845-8.937-8.681-9.235zM10 19.808c-4.43 0-8.033-3.604-8.033-8.033 0-4.43 3.603-8.032 8.033-8.032s8.033 3.603 8.033 8.032S14.43 19.808 10 19.808z" fill="#000"/><path d="M6.863 17.322a6.39 6.39 0 01-3.234-5.547.305.305 0 10-.611 0 7.003 7.003 0 003.544 6.079.306.306 0 10.3-.532zm1.667.838a6.839 6.839 0 01-.353-.102.305.305 0 00-.186.582c.127.04.255.078.385.11a.305.305 0 00.153-.59zm9.355-12.432a.611.611 0 00.863-.865L17.162 3.28a.61.61 0 10-.863.865l1.586 1.583zm-7.31 5.933V6.776a.611.611 0 00-1.223 0v5.15c0 .168.088.328.21.443l1.789 1.672a.61.61 0 00.657.117.61.61 0 00.164-1.006l-1.597-1.49z" fill="#000"/></svg>