<svg width="44" height="44" fill="none" xmlns="http://www.w3.org/2000/svg"><path d="M41.8 6.6h-1.467V5.133a2.2 2.2 0 00-2.2-2.2h-1.747L35.326.811A1.457 1.457 0 0034.012 0H33c-.81 0-1.467.657-1.467 1.467v1.466h-8.066a2.2 2.2 0 00-2.2 2.2V6.6H19.8a2.2 2.2 0 00-2.2 2.2v1.467c0 .81.657 1.466 1.467 1.466h.077l.858 7.577-3.533-.83a11.096 11.096 0 00-.576-.813L14.646 12.3a.733.733 0 00-.713-.568H9.72C7.73 9.981 5.382 9.19 3.61 9.711L2.532 8.537a1.448 1.448 0 00-1.605-.366c-.56.216-.93.755-.928 1.355v32.289A2.188 2.188 0 002.185 44h35.948c.373 0 .686-.28.728-.65l3.593-31.617h.08c.81 0 1.466-.657 1.466-1.466V8.8a2.2 2.2 0 00-2.2-2.2zM33 1.467h1.013l.734 1.466H33V1.467zM22.733 5.133c0-.405.329-.733.734-.733h14.666c.405 0 .734.328.734.733V6.6H22.733V5.133zm-2.053 15.84l.046.009.593.14.397 4.162a6.758 6.758 0 00-3.94-1.242 6.28 6.28 0 00-.411-3.848l3.315.78zm1.433 6.487l.01.008c.265.245.517.505.755.778a8.685 8.685 0 011.876 3.388c.124.437.188.89.19 1.344l-6.849-7.47c1.523.17 2.942.86 4.018 1.952zm-7.728-9.32v-.002c1.583 1.819 2.32 4.003 1.97 5.472l-7.463-8.137c1.505-.336 3.795.721 5.493 2.667zm-1.038-4.94l.586 2.497a9.342 9.342 0 00-1.913-1.154 11.558 11.558 0 00-.928-1.343h2.255zm-3.687.546h.003c.061.07.11.146.17.22a3.99 3.99 0 00-2.012.338l-3.015-3.288c1.474.021 3.398 1.058 4.854 2.73zm21.077 28.356a.716.716 0 01-.656.431H2.185a.719.719 0 01-.718-.718L1.453 9.533l14.72 16.048v.004l8.644 9.424.01.011 4.741 5.172c.017.022.034.044.053.065l.984 1.072a.716.716 0 01.132.773zm-4.54-7.757a4.59 4.59 0 00.203-1.352c.385.325.744.68 1.074 1.061.41.468.773.975 1.086 1.513.428.72.73 1.507.895 2.329l-3.257-3.551zm11.281 8.188h-5.342c.275-.76.1-1.61-.45-2.2l-.74-.806a6.691 6.691 0 00-.571-3.594h7.854l-.75 6.6zm.917-8.066h-8.8a11.218 11.218 0 00-1.009-1.375 10.69 10.69 0 00-2.512-2.136 10.145 10.145 0 00-2.09-3.676c-.22-.25-.44-.482-.671-.706l-.58-6.11a.733.733 0 00-.56-.644l-.65-.154-.154-1.333h18.86l-1.834 16.134zm2-17.6H21.203l-.58-5.134H40.98l-.583 5.134zm2.138-6.6H19.067V8.8c0-.405.328-.733.733-.733h22c.405 0 .733.328.733.733v1.467z" fill="#363853"/><path d="M31.1 32.267c.042 0 .083-.006.124-.008.011 0 .023.008.034.008a.704.704 0 00.109-.016 3.966 3.966 0 002.899-1.568 5.1 5.1 0 00.714-4.474c-.102-.38-.195-.753-.285-1.113-.572-2.293-1.119-4.456-3.435-4.553-.024 0-.046-.004-.07-.004-.023 0-.057-.006-.09-.006-2.591 0-4.7 2.632-4.7 5.867s2.109 5.867 4.7 5.867zm.568-10.157c.758.298 1.092 1.291 1.604 3.341.092.367.187.751.293 1.14a3.656 3.656 0 01-.464 3.2 2.592 2.592 0 01-.876.734 10.656 10.656 0 00-.733-3.68c-.073-.23-.147-.45-.211-.66-.427-1.389.073-3.188.387-4.075zm-1.576.11a8.049 8.049 0 00-.212 4.393c.068.22.143.448.22.685.367 1.12.807 2.472.627 3.468-1.607-.25-2.86-2.112-2.86-4.366 0-1.947.935-3.6 2.225-4.18zM3.881 38.563l-.518.518A.733.733 0 104.4 40.118l.518-.518a.733.733 0 00-1.037-1.037zm7.012-4.937a.734.734 0 00-1.038-1.037l-.518.518a.733.733 0 101.037 1.038l.519-.519zM4.4 31.748l-.519.519a.733.733 0 101.037 1.037l.519-.519A.733.733 0 004.4 31.748zm0-5.133l-.519.518a.733.733 0 101.037 1.037l.519-.518A.733.733 0 004.4 26.615zM11 38.563l-.518.518a.733.733 0 101.037 1.037l.518-.518A.733.733 0 0011 38.563zm5.348 0l-.518.519a.734.734 0 101.037 1.036l.518-.518a.733.733 0 00-1.037-1.037z" fill="#363853"/></svg>