<svg width="10" height="13" fill="none" xmlns="http://www.w3.org/2000/svg"><path d="M5.072 12.16c-.757 0-1.424-.123-2-.368-.576-.256-1.03-.613-1.36-1.072-.33-.47-.496-1.035-.496-1.696 0-.533.117-.992.352-1.376.245-.384.597-.71 1.056-.976a8.531 8.531 0 011.68-.736c.661-.235 1.21-.453 1.648-.656.437-.213.768-.443.992-.688.224-.245.336-.56.336-.944 0-.565-.176-.981-.528-1.248-.352-.267-.81-.4-1.376-.4-.693 0-1.259.15-1.696.448-.437.288-.693.656-.768 1.104-.032.117-.09.197-.176.24a.54.54 0 01-.24.064h-.864a.326.326 0 01-.24-.096.346.346 0 01-.096-.224c0-.32.085-.645.256-.976a3 3 0 01.768-.944c.341-.299.768-.533 1.28-.704C4.112.731 4.704.64 5.376.64c.715 0 1.323.133 1.824.4.501.256.885.608 1.152 1.056.267.448.4.955.4 1.52 0 .544-.133.997-.4 1.36-.256.363-.619.677-1.088.944a9.584 9.584 0 01-1.648.688c-.715.224-1.29.448-1.728.672-.427.224-.736.47-.928.736-.181.256-.272.576-.272.96 0 .565.203 1.013.608 1.344.405.32.987.48 1.744.48.608 0 1.104-.08 1.488-.24.384-.17.677-.379.88-.624.203-.256.33-.512.384-.768.043-.085.09-.16.144-.224a.368.368 0 01.272-.096h.832c.096 0 .176.037.24.112a.307.307 0 01.096.224c0 .512-.165.997-.496 1.456-.33.448-.821.816-1.472 1.104-.64.277-1.419.416-2.336.416zM1.024 7.824a.368.368 0 01-.272-.096.404.404 0 01-.096-.272V7.2c0-.107.032-.192.096-.256a.339.339 0 01.272-.112h7.984a.32.32 0 01.256.112.32.32 0 01.112.256v.256a.37.37 0 01-.112.272.346.346 0 01-.256.096H1.024zm0-1.76a.368.368 0 01-.272-.096.404.404 0 01-.096-.272V5.44c0-.107.032-.192.096-.256a.339.339 0 01.272-.112h7.984a.32.32 0 01.256.112.32.32 0 01.112.256v.256a.37.37 0 01-.112.272.346.346 0 01-.256.096H1.024z" fill="#C2C2C2"/></svg>