<svg width="32" height="34" viewBox="0 0 32 34" fill="none" xmlns="http://www.w3.org/2000/svg">
<path d="M13.7804 27.1251H1.13878C0.510161 27.1251 9.68073e-07 27.6291 9.95549e-07 28.2501C1.02303e-06 28.8711 0.510218 29.3751 1.13878 29.3751H13.7803C14.3076 31.9423 16.6046 33.8751 19.3593 33.8751C22.114 33.8751 24.4108 31.9423 24.938 29.3751H30.7469C31.3755 29.3751 31.8857 28.8711 31.8857 28.2501C31.8857 27.6291 31.3755 27.1251 30.7469 27.1251H24.9383C24.411 24.5578 22.114 22.6251 19.3593 22.6251C16.6047 22.6251 14.3076 24.5578 13.7804 27.1251ZM22.7755 28.2501C22.7755 30.1142 21.2463 31.6251 19.3593 31.6251C17.4723 31.6251 15.9429 30.1142 15.9429 28.2501C15.9429 26.3859 17.4723 24.8751 19.3593 24.8751C21.2463 24.8751 22.7755 26.3859 22.7755 28.2501ZM2.39261 15.875H1.13878C0.510161 15.875 4.70298e-07 16.3791 4.97775e-07 17C5.25251e-07 17.621 0.510161 18.125 1.13878 18.125H2.39255C2.9198 20.6923 5.21671 22.6251 7.97145 22.6251C10.7262 22.6251 13.023 20.6923 13.5503 18.125H30.7469C31.3755 18.125 31.8857 17.621 31.8857 17C31.8857 16.379 31.3755 15.875 30.7469 15.875H13.5503C13.0231 13.3078 10.7262 11.375 7.9715 11.375C5.21682 11.375 2.91984 13.3078 2.39261 15.875ZM11.3878 17C11.3878 18.8642 9.8584 20.375 7.97145 20.375C6.08448 20.375 4.5551 18.8642 4.5551 17C4.5551 15.1359 6.08448 13.625 7.97145 13.625C9.8584 13.625 11.3878 15.1359 11.3878 17ZM18.3355 4.62502H1.13878C0.510161 4.62502 -2.74764e-08 5.12906 0 5.75001C2.74741e-08 6.37097 0.510161 6.87501 1.13878 6.87501H18.3355C18.8627 9.44229 21.1597 11.375 23.9143 11.375C26.669 11.375 28.9659 9.44226 29.4931 6.87501H30.7469C31.3755 6.87501 31.8857 6.37097 31.8857 5.75001C31.8857 5.12906 31.3755 4.62502 30.7469 4.62502H29.4931C28.9659 2.05774 26.669 0.125 23.9143 0.125C21.1597 0.125 18.8628 2.05774 18.3355 4.62502ZM27.3306 5.75001C27.3306 7.61414 25.8012 9.12502 23.9143 9.12502C22.0274 9.12502 20.498 7.61414 20.498 5.75001C20.498 3.88587 22.0274 2.37499 23.9143 2.37499C25.8012 2.37499 27.3306 3.88587 27.3306 5.75001Z" fill="#FF6838"/>
</svg>
