<svg width="10" height="13" viewBox="0 0 10 13" fill="none" xmlns="http://www.w3.org/2000/svg">
<path d="M5.072 12.16C4.31467 12.16 3.648 12.0373 3.072 11.792C2.496 11.536 2.04267 11.1787 1.712 10.72C1.38133 10.2507 1.216 9.68533 1.216 9.024C1.216 8.49067 1.33333 8.032 1.568 7.648C1.81333 7.264 2.16533 6.93867 2.624 6.672C3.09333 6.39467 3.65333 6.14933 4.304 5.936C4.96533 5.70133 5.51467 5.48267 5.952 5.28C6.38933 5.06667 6.72 4.83733 6.944 4.592C7.168 4.34667 7.28 4.032 7.28 3.648C7.28 3.08267 7.104 2.66667 6.752 2.4C6.4 2.13333 5.94133 2 5.376 2C4.68267 2 4.11733 2.14933 3.68 2.448C3.24267 2.736 2.98667 3.104 2.912 3.552C2.88 3.66933 2.82133 3.74933 2.736 3.792C2.65067 3.83467 2.57067 3.856 2.496 3.856H1.632C1.536 3.856 1.456 3.824 1.392 3.76C1.328 3.68533 1.296 3.61067 1.296 3.536C1.296 3.216 1.38133 2.89067 1.552 2.56C1.72267 2.21867 1.97867 1.904 2.32 1.616C2.66133 1.31733 3.088 1.08267 3.6 0.912C4.112 0.730666 4.704 0.639999 5.376 0.639999C6.09067 0.639999 6.69867 0.773333 7.2 1.04C7.70133 1.296 8.08533 1.648 8.352 2.096C8.61867 2.544 8.752 3.05067 8.752 3.616C8.752 4.16 8.61867 4.61333 8.352 4.976C8.096 5.33867 7.73333 5.65333 7.264 5.92C6.79467 6.176 6.24533 6.40533 5.616 6.608C4.90133 6.832 4.32533 7.056 3.888 7.28C3.46133 7.504 3.152 7.74933 2.96 8.016C2.77867 8.272 2.688 8.592 2.688 8.976C2.688 9.54133 2.89067 9.98933 3.296 10.32C3.70133 10.64 4.28267 10.8 5.04 10.8C5.648 10.8 6.144 10.72 6.528 10.56C6.912 10.3893 7.20533 10.1813 7.408 9.936C7.61067 9.68 7.73867 9.424 7.792 9.168C7.83467 9.08267 7.88267 9.008 7.936 8.944C8 8.88 8.09067 8.848 8.208 8.848H9.04C9.136 8.848 9.216 8.88533 9.28 8.96C9.344 9.024 9.376 9.09867 9.376 9.184C9.376 9.696 9.21067 10.1813 8.88 10.64C8.54933 11.088 8.05867 11.456 7.408 11.744C6.768 12.0213 5.98933 12.16 5.072 12.16ZM1.024 7.824C0.906667 7.824 0.816 7.792 0.752 7.728C0.688 7.65333 0.656 7.56267 0.656 7.456V7.2C0.656 7.09333 0.688 7.008 0.752 6.944C0.816 6.86933 0.906667 6.832 1.024 6.832H9.008C9.11467 6.832 9.2 6.86933 9.264 6.944C9.33867 7.008 9.376 7.09333 9.376 7.2V7.456C9.376 7.56267 9.33867 7.65333 9.264 7.728C9.2 7.792 9.11467 7.824 9.008 7.824H1.024ZM1.024 6.064C0.906667 6.064 0.816 6.032 0.752 5.968C0.688 5.89333 0.656 5.80267 0.656 5.696V5.44C0.656 5.33333 0.688 5.248 0.752 5.184C0.816 5.10933 0.906667 5.072 1.024 5.072H9.008C9.11467 5.072 9.2 5.10933 9.264 5.184C9.33867 5.248 9.376 5.33333 9.376 5.44V5.696C9.376 5.80267 9.33867 5.89333 9.264 5.968C9.2 6.032 9.11467 6.064 9.008 6.064H1.024Z" fill="#C2C2C2"/>
</svg>
